<svg xmlns="http://www.w3.org/2000/svg" width="36" height="22" viewBox="0 0 36 22" fill="none">
    <path d="M32.4343 22H3.5653C1.98252 22 0.6875 20.705 0.6875 19.1222V2.8778C0.6875 1.29502 1.98252 0 3.5653 0H32.4343C34.017 0 35.3121 1.29502 35.3121 2.8778V19.1222C35.3121 20.705 34.017 22 32.4343 22Z" fill="#2B4C7E"/>
    <path d="M35.3121 2.87761V19.1222C35.3121 20.7049 34.0172 21.9998 32.4345 21.9998H18V0H32.4345C34.0172 0 35.3121 1.29493 35.3121 2.87761Z" fill="#D9D9D9"/>
    <path d="M28.0057 5.9292H18V8.52833H28.0057V5.9292Z" fill="#FEFEFE"/>
    <path d="M31.6919 10.6523H18V12.5408H31.6919V10.6523Z" fill="#FEFEFE"/>
    <path d="M31.6919 14.1831H18V16.0716H31.6919V14.1831Z" fill="#FEFEFE"/>
    <path d="M12.1981 11.5114C13.0838 10.7914 13.6501 9.69344 13.6501 8.46303C13.6501 6.29396 11.8917 4.53564 9.72268 4.53564C7.55371 4.53564 5.7953 6.29405 5.7953 8.46303C5.7953 9.69353 6.36154 10.7914 7.24729 11.5115C5.57595 11.8535 4.30859 13.3402 4.30859 15.1087V16.3142C4.30859 16.9464 4.82582 17.4636 5.45806 17.4636H13.9873C14.6195 17.4636 15.1368 16.9463 15.1368 16.3142V15.1087C15.1367 13.3401 13.8693 11.8534 12.1981 11.5114Z" fill="white" fill-opacity="0.96"/>
</svg>
