<svg width="110" height="110" viewBox="0 0 110 110" fill="none" xmlns="http://www.w3.org/2000/svg">
<rect width="110" height="110" fill="#F3F3F3"/>
<path d="M80 74.4444V35.5556C80 32.5 77.5 30 74.4444 30H35.5556C32.5 30 30 32.5 30 35.5556V74.4444C30 77.5 32.5 80 35.5556 80H74.4444C77.5 80 80 77.5 80 74.4444ZM46.3889 60.5L52.2222 67.5278L60.8333 56.4444C61.3889 55.7222 62.5 55.7222 63.0556 56.4722L72.8056 69.4722C73.5 70.3889 72.8333 71.6944 71.6944 71.6944H38.3889C37.2222 71.6944 36.5833 70.3611 37.3056 69.4444L44.2222 60.5556C44.75 59.8333 45.8056 59.8056 46.3889 60.5Z" fill="#C7C7C7"/>
</svg>
